#!OML:ASF H:\Terrain\Patient Classification 1\Animal1\Tuesday\Animal1.ASF
:FULLY-SPECIFIED
:DEGREES
1681
root 8.78736 15.9843 -4.19009 -167.744 -179.619 174.471
lowerback 17.433 0.046959 -2.13519
upperback 12.1229 -0.210513 -2.65773
thorax 3.23479 -0.134012 -1.57809
lowerneck 1.37861 -13.8503 -13.8357
upperneck -7.62895 -18.3836 17.7803
head 0.540575 -9.41998 7.06346
rclavicle -3.18055e-015 1.74931e-014
rhumerus -11.5741 30.9446 -7.94461
rradius 22.5442
rwrist -36.3936
rhand -5.09934 9.4591
rfingers 7.12502
rthumb 20.698 -19.4572
lclavicle -3.18055e-015 1.74931e-014
lhumerus -4.22703 -4.78333 -1.93235
lradius 22.5599
lwrist -32.6577
lhand 19.73 60.7391
lfingers 7.12502
lthumb 44.2835 444.515
rfemur -34.2002 -0.837596 18.3962
rtibia 35.9367
rfoot -3.65664 -19.7487
rtoes -17.7771
lfemur -33.4752 -1.18007 3.0457
ltibia 30.8314
lfoot -10.6153 4.75904
ltoes -25.9529
1682
root 8.78942 15.9959 -4.18159 -167.996 -179.42 174.753
lowerback 17.685 0.10267 -2.48493
upperback 12.0583 -0.196955 -2.8173
thorax 3.03839 -0.14075 -1.55173
lowerneck 1.59561 -13.8155 -13.8846
upperneck -7.69969 -18.3549 17.7741
head 0.484512 -9.41323 7.09207
rclavicle 2.06736e-014 2.22639e-014
rhumerus -11.1416 32.0315 -7.42354
rradius 22.4419
rwrist -36.287
rhand -4.80894 10.6681
rfingers 7.12502
rthumb 20.977 -18.2175
lclavicle 2.06736e-014 2.22639e-014
lhumerus -3.89699 -4.58653 -2.59231
lradius 22.4851
lwrist -33.0441
lhand 20.6473 60.3183
lfingers 7.12502
lthumb 45.1376 443.763
rfemur -33.9176 -0.931687 18.105
rtibia 35.8772
rfoot -3.97112 -19.5185
rtoes -17.1453
lfemur -32.9812 -1.47358 2.74538
ltibia 30.6894
lfoot -10.7102 5.07317
ltoes -25.9327
1683
root 8.78923 16.0076 -4.17267 -168.256 -179.29 174.726
lowerback 17.7885 0.119415 -2.44567
upperback 12.1149 -0.173466 -2.91891
thorax 3.04803 -0.123115 -1.6858
lowerneck 1.48502 -13.8752 -13.5486
upperneck -7.67072 -18.4227 17.3311
head 0.439892 -9.43744 6.90383
rclavicle -1.74931e-014 -4.13472e-014
rhumerus -10.7798 33.7218 -6.91661
rradius 22.6214
rwrist -37.7125
rhand -5.45465 11.0153
rfingers 7.12502
rthumb 20.3565 -17.9378
lclavicle -1.74931e-014 -4.13472e-014
lhumerus -3.50355 -3.49661 -2.85412
lradius 22.3067
lwrist -32.1143
lhand 19.8333 60.7674
lfingers 7.12502
lthumb 44.3798 444.507
rfemur -33.5605 -0.893729 18.1447
rtibia 35.776
rfoot -3.94381 -19.3999
rtoes -17.2007
lfemur -32.4952 -1.67739 2.788
ltibia 30.5578
lfoot -10.7459 5.36716
ltoes -25.6838
1684
root 8.78616 16.0078 -4.16597 -168.282 -179.234 174.599
lowerback 17.5448 0.124867 -2.30668
upperback 12.2048 -0.134814 -2.97046
thorax 3.27179 -0.0947158 -1.82523
lowerneck 1.441 -13.9772 -13.3822
upperneck -7.67621 -18.5548 17.1426
head 0.427987 -9.50093 6.81239
rclavicle 2.8625e-014 3.97569e-014
rhumerus -10.5705 35.4457 -6.43318
rradius 22.9822
rwrist -40.1495
rhand -5.96295 10.1457
rfingers 7.12502
rthumb 19.868 -18.8587
lclavicle 2.8625e-014 3.97569e-014
lhumerus -3.14222 -2.29459 -2.87993
lradius 22.258
lwrist -29.7474
lhand 18.6005 61.7834
lfingers 7.12502
lthumb 43.2292 445.948
rfemur -33.4182 -0.811404 18.283
rtibia 35.6611
rfoot -3.82963 -19.347
rtoes -17.4964
lfemur -32.3622 -1.78008 2.97176
ltibia 30.4597
lfoot -10.6639 5.64209
ltoes -25.6359
1685
root 8.78239 16.005 -4.16109 -168.21 -179.119 174.607
lowerback 17.2204 0.151193 -2.40418
upperback 12.2444 -0.0980883 -3.02322
thorax 3.48409 -0.0813883 -1.83172
lowerneck 1.61134 -14.0418 -13.4918
upperneck -7.80997 -18.6521 17.2837
head 0.402077 -9.55993 6.87819
rclavicle 1.90833e-014 6.36111e-015
rhumerus -10.322 35.7578 -6.13428
rradius 23.19
rwrist -41.6053
rhand -5.72994 9.2034
rfingers 7.12502
rthumb 20.0919 -19.7777
lclavicle 1.90833e-014 6.36111e-015
lhumerus -3.03842 -1.72779 -2.86836
lradius 22.4883
lwrist -26.0082
lhand 16.7176 63.0278
lfingers 7.12502
lthumb 41.4659 447.794
rfemur -33.4293 -0.662004 18.2472
rtibia 35.5433
rfoot -3.92552 -19.3329
rtoes -17.252
lfemur -32.3538 -1.88568 3.0193
ltibia 30.4171
lfoot -10.6163 5.8751
ltoes -26.2802
1686
root 8.77909 16.0065 -4.15937 -168.166 -178.97 174.642
lowerback 17.0129 0.205747 -2.56115
upperback 12.2425 -0.0384635 -3.05438
thorax 3.5914 -0.0609556 -1.78442
lowerneck 1.65062 -14.1448 -13.4925
upperneck -7.87574 -18.7924 17.249
head 0.393204 -9.6317 6.86159
rclavicle -6.36111e-015 -9.54166e-015
rhumerus -10.0953 35.9141 -5.95176
rradius 23.3618
rwrist -42.5998
rhand -5.97645 8.56891
rfingers 7.12502
rthumb 19.855 -20.4369
lclavicle -6.36111e-015 -9.54166e-015
lhumerus -2.94829 -1.51495 -2.73718
lradius 22.7778
lwrist -22.0585
lhand 14.2532 64.1751
lfingers 7.12502
lthumb 39.1482 449.653
rfemur -33.4769 -0.493186 18.1875
rtibia 35.4669
rfoot -3.93602 -19.3556
rtoes -17.0929
lfemur -32.2593 -1.9596 3.02278
ltibia 30.3587
lfoot -10.6445 6.00588
ltoes -26.3504
1687
root 8.77673 16.012 -4.15438 -168.241 -178.893 174.694
lowerback 16.9677 0.228428 -2.64059
upperback 12.251 -0.0165184 -3.09726
thorax 3.6254 -0.0534707 -1.7883
lowerneck 1.62573 -14.2807 -13.4962
upperneck -7.88872 -18.9756 17.1717
head 0.411443 -9.72015 6.82129
rclavicle 1.59028e-015 1.11319e-014
rhumerus -9.88587 36.2503 -5.77806
rradius 23.5369
rwrist -43.2037
rhand -6.64372 7.93485
rfingers 7.12502
rthumb 19.2134 -21.1361
lclavicle 1.59028e-015 1.11319e-014
lhumerus -2.77446 -1.03651 -2.43833
lradius 22.9533
lwrist -19.4045
lhand 12.5387 64.8371
lfingers 7.12502
lthumb 37.5301 629.237
rfemur -33.361 -0.43932 18.1345
rtibia 35.4317
rfoot -3.80976 -19.3788
rtoes -17.3925
lfemur -32.025 -2.05951 2.9673
ltibia 30.2254
lfoot -10.6468 6.2257
ltoes -26.8736
